<svg width="60" height="49" viewBox="0 0 60 49" fill="none" xmlns="http://www.w3.org/2000/svg">
<path fill-rule="evenodd" clip-rule="evenodd" d="M15.5 16.9102C15.5 16.0818 16.1716 15.4102 17 15.4102H42.7143C43.5427 15.4102 44.2143 16.0818 44.2143 16.9102C44.2143 17.7386 43.5427 18.4102 42.7143 18.4102H17C16.1716 18.4102 15.5 17.7386 15.5 16.9102Z" fill="#292D3A"/>
<path fill-rule="evenodd" clip-rule="evenodd" d="M15.5 32.9102C15.5 32.0818 16.1716 31.4102 17 31.4102H34C34.8284 31.4102 35.5 32.0818 35.5 32.9102C35.5 33.7386 34.8284 34.4102 34 34.4102H17C16.1716 34.4102 15.5 33.7386 15.5 32.9102Z" fill="#292D3A"/>
<path fill-rule="evenodd" clip-rule="evenodd" d="M15.5 24.9102C15.5 24.0818 16.1716 23.4102 17 23.4102H42.7143C43.5427 23.4102 44.2143 24.0818 44.2143 24.9102C44.2143 25.7386 43.5427 26.4102 42.7143 26.4102H17C16.1716 26.4102 15.5 25.7386 15.5 24.9102Z" fill="#292D3A"/>
</svg>
