<svg width="178" height="53" viewBox="0 0 178 53" fill="none" xmlns="http://www.w3.org/2000/svg">
<path d="M0 25.4077C0 13.5681 0 7.64822 3.67811 3.9701C7.35622 0.291992 13.2761 0.291992 25.1157 0.291992H27.2997C39.1394 0.291992 45.0593 0.291992 48.7373 3.9701C52.4154 7.64822 52.4154 13.5681 52.4154 25.4077V27.5917C52.4154 39.4314 52.4154 45.3513 48.7373 49.0293C45.0593 52.7074 39.1394 52.7074 27.2997 52.7074H25.1157C13.2761 52.7074 7.35622 52.7074 3.67811 49.0293C0 45.3513 0 39.4314 0 27.5917L0 25.4077Z" fill="#D82E2F"/>
<path d="M36.5116 21.1958L44.8785 16.1681L26.756 5.2793L7.97656 16.1681L16.6489 21.1958L7.97656 26.2236L16.6489 31.2514L7.97656 36.2792L26.7617 47.168L44.8785 36.2792L36.5116 31.2514L44.8785 26.2236L36.5116 21.1958ZM25.3384 36.2964L25.1598 36.193L25.3384 36.2964ZM26.7445 35.446L19.5127 31.2514L26.7445 27.0568L33.7226 31.2514L26.7445 35.446ZM26.7445 25.3905L19.5127 21.1958L26.7445 17.0012L33.7226 21.1958L26.7445 25.3905ZM10.8462 16.1681L26.7445 6.9514L33.6362 11.0943L26.514 15.4785L18.0837 20.3684L10.8462 16.1681ZM10.8462 26.2236L18.0837 22.029L25.3212 26.2236L18.0837 30.4182L10.8462 26.2236ZM42.0838 36.2792L26.7445 45.5016L19.7317 41.4334L26.756 37.1124L35.1114 32.0903L42.0838 36.2792ZM28.1505 26.2236L35.1171 22.0348L42.0838 26.2236L35.1171 30.4125L28.1505 26.2236Z" fill="white"/>
<path d="M80.1385 38.9409V29.1951C78.4799 29.3657 77.034 29.4509 75.7922 29.4509C72.8408 29.4509 70.6719 28.9223 69.2855 27.8735C67.6525 26.6542 66.8359 24.7017 66.8359 22.0158V14.504H71.5905V21.1717C71.5905 22.7832 71.9903 23.9087 72.7983 24.5397C73.5042 25.0768 74.661 25.3497 76.2685 25.3497C77.6549 25.3497 78.9477 25.2644 80.1385 25.0939V14.504H84.8931V38.9409H80.1385Z" fill="#292D3A"/>
<path d="M107.03 38.9416L104.87 33.8087H95.0374L92.877 38.9416H87.7227L98.2865 13.9932H101.867L112.133 38.9416H107.03ZM96.5428 29.9291H103.483L100.047 21.1383L96.5428 29.9291Z" fill="#292D3A"/>
<path d="M115.004 14.504H122.097C123.611 14.504 124.845 14.6319 125.806 14.8877C126.767 15.1435 127.677 15.638 128.528 16.3713C130.186 17.8379 131.011 19.8075 131.011 22.2716C131.011 24.5653 130.339 26.3899 129.004 27.7286C127.566 29.1696 125.508 29.8943 122.829 29.8943H119.758V38.9409H115.004V14.504ZM119.75 18.6053V25.7845H121.689C123.076 25.7845 124.113 25.5288 124.794 25.0172C125.67 24.335 126.112 23.3801 126.112 22.1608C126.112 20.9671 125.661 20.0377 124.76 19.3726C124.028 18.8611 122.905 18.6053 121.4 18.6053H119.75Z" fill="#292D3A"/>
<path d="M139.266 14.504V24.8381L148.223 14.504H154.219L143.91 25.7845L154.763 38.9409H148.478L139.811 27.9844L139.266 28.5301V38.9324H134.512V14.504H139.266Z" fill="#292D3A"/>
<path d="M162.504 14.5039V24.838L171.46 14.5039H177.456L167.148 25.7844L178.001 38.9408H171.715L163.057 27.9843L162.512 28.5299V38.9322H157.758V14.5039H162.504Z" fill="#292D3A"/>
</svg>
