<svg width="55" height="49" viewBox="0 0 55 49" fill="none" xmlns="http://www.w3.org/2000/svg">
<path d="M22.5711 24.4921C23.6102 26.6165 25.3322 28.3307 27.4613 29.3601C27.6171 29.4339 27.7894 29.4659 27.9613 29.4529C28.1332 29.4399 28.2988 29.3823 28.4416 29.2859L31.5766 27.1955C31.7153 27.103 31.8748 27.0466 32.0407 27.0314C32.2067 27.0161 32.3738 27.0425 32.527 27.1082L38.3919 29.6217C38.5912 29.7063 38.7575 29.8534 38.8659 30.0408C38.9742 30.2282 39.0188 30.4457 38.9928 30.6606C38.8074 32.1112 38.0996 33.4444 37.0021 34.4107C35.9045 35.377 34.4923 35.9101 33.0299 35.9102C28.5133 35.9102 24.1817 34.116 20.9879 30.9223C17.7942 27.7285 16 23.3969 16 18.8803C16.0001 17.4179 16.5332 16.0057 17.4995 14.9082C18.4658 13.8106 19.799 13.1028 21.2496 12.9174C21.4645 12.8914 21.682 12.936 21.8694 13.0443C22.0568 13.1527 22.2039 13.319 22.2885 13.5183L24.8042 19.3883C24.8693 19.5401 24.8958 19.7057 24.8814 19.8703C24.867 20.0348 24.8121 20.1933 24.7217 20.3315L22.6385 23.5146C22.5437 23.6577 22.4876 23.8231 22.4758 23.9944C22.464 24.1657 22.4968 24.3372 22.5711 24.4921Z" stroke="#292D3A" stroke-width="2" stroke-linecap="round" stroke-linejoin="round"/>
</svg>
